<?xml version="1.0" encoding="utf-8"?>
<!-- Generator: Adobe Illustrator 24.1.2, SVG Export Plug-In . SVG Version: 6.00 Build 0)  -->
<svg version="1.1" xmlns="http://www.w3.org/2000/svg" xmlns:xlink="http://www.w3.org/1999/xlink" x="0px" y="0px"
	 viewBox="0 0 400 445.2" style="enable-background:new 0 0 400 445.2;" xml:space="preserve">
<style type="text/css">
	.st0{display:none;}
	.st1{display:inline;}
	.st2{fill-rule:evenodd;clip-rule:evenodd;}
	.st3{display:inline;fill:#FFFFFF;}
	.st4{fill:#FFFFFF;}
</style>
<g id="Layer_1" class="st0">
	<g class="st1">
		<path class="st2" d="M14.2,212.5H46v129.3c0,7.7,6.6,14.2,14.2,14.2h95.3c1.1,0,3.3,0,4.4-1.1V235.5h78.9V356c1.1,0,2.2,0,2.2,0
			h90.9c7.7,0,14.2-6.6,14.2-14.2V212.5h39.4c12.1,0,18.6-15.3,9.9-24.1L213.6,4.4c-5.5-5.5-14.2-5.5-19.7,0L4.4,188.4
			C-4.4,196.1,1.1,212.5,14.2,212.5z"/>
	</g>
</g>
<g id="Layer_2" class="st0">
	<g class="st1">
		<path class="st2" d="M331.9,356c7.7,0,14.2-6.6,14.2-14.2V212.5h39.4c12.1,0,18.6-15.3,9.9-24.1L213.6,4.4
			c-5.5-5.5-14.2-5.5-19.7,0L4.4,188.4c-8.8,7.7-3.3,24.1,9.8,24.1H46v129.3c0,7.7,6.6,14.2,14.2,14.2H331.9z"/>
	</g>
	<path class="st3" d="M254.1,210c13.9-38.9-20.5-54.6-26.9-55.3l-14.1,131.6c-3,27.7-35.8,34.2-56.3,32
		c-28.9-3.1-50.4-22.4-48.2-43.2c2.2-20.8,27.4-35.1,56.3-32c12.5,1.3,23.6,5.7,32,11.9c0,0,17.1-159.7,17.9-166.6
		c0.7-7,3.4-6.7,10.4-5.9c7,0.8,9.6,1.4,8.9,8c-4.3,40.3,37.5,45.3,44.2,75.2C283.9,190.7,249,224.2,254.1,210z"/>
</g>
<g id="Layer_3">
	<g>
		<path class="st2" d="M331.9,356c7.7,0,14.2-6.6,14.2-14.2V212.5h39.4c12.1,0,18.6-15.3,9.9-24.1L213.6,4.4
			c-5.5-5.5-14.2-5.5-19.7,0L4.4,188.4c-8.8,7.7-3.3,24.1,9.8,24.1H46v129.3c0,7.7,6.6,14.2,14.2,14.2H331.9z"/>
	</g>
	<path class="st4" d="M265.9,131.8c0-5.7-5.3-10.4-10.6-9.4l-115.3,28.3c-4.4,0.9-7.1,4.7-7.1,9.4v106.5
		c-21.3-7.5-44.4,4.7-44.4,21.7c0,12.3,14.2,22.6,31.1,22.6s31.1-10.4,31.1-23.6c0-0.9,0-82,0-82l97.6-26.4v86.7
		c-21.3-7.5-44.4,3.8-44.4,21.7c0,13.2,14.2,23.6,31.1,23.6s31.1-10.4,31.1-23.6C265.9,286.4,265.9,131.8,265.9,131.8z"/>
</g>
</svg>
