<?xml version="1.0" encoding="utf-8"?>
<!-- Generator: Adobe Illustrator 24.1.0, SVG Export Plug-In . SVG Version: 6.00 Build 0)  -->
<svg version="1.1" id="Layer_1" xmlns="http://www.w3.org/2000/svg" xmlns:xlink="http://www.w3.org/1999/xlink" x="0px" y="0px"
	 viewBox="0 0 45 35" style="enable-background:new 0 0 45 35;" xml:space="preserve">
<style type="text/css">
	.st0{fill-rule:evenodd;clip-rule:evenodd;}
</style>
<desc>Created with Sketch.</desc>
<g>
	<g transform="translate(-188.000000, -108.000000)">
		<path class="st0" d="M210,120.8l-20.5-12l0,0c-0.2-0.1-0.3-0.1-0.5-0.1c-0.6,0-1,0.4-1,1l0,0v24.5c0,0.2,0,0.4,0.1,0.5
			c0.3,0.5,0.9,0.6,1.4,0.4l0,0l20.5-12v11.1c0,0.2,0,0.4,0.1,0.5c0.3,0.5,0.9,0.6,1.4,0.4l0,0l21-12.3c0.1-0.1,0.3-0.2,0.4-0.4
			c0.3-0.5,0.1-1.1-0.4-1.4l-21-12.3l0,0c-0.2-0.1-0.3-0.1-0.5-0.1c-0.6,0-1,0.4-1,1l0,0V120.8z"/>
	</g>
</g>
</svg>
