<?xml version="1.0" encoding="utf-8"?>
<!-- Generator: Adobe Illustrator 24.1.2, SVG Export Plug-In . SVG Version: 6.00 Build 0)  -->
<svg version="1.1" id="Layer_2" xmlns="http://www.w3.org/2000/svg" xmlns:xlink="http://www.w3.org/1999/xlink" x="0px" y="0px"
	 viewBox="0 0 100 101.4" style="enable-background:new 0 0 100 101.4;" xml:space="preserve">
<style type="text/css">
	.st0{fill-rule:evenodd;clip-rule:evenodd;}
</style>
<path class="st0" d="M18.1,84.8V15.3c0-2.9,2.4-5.3,5.3-5.3h12.7c2.9,0,5.3,2.4,5.3,5.3v69.5c0,2.9-2.4,5.3-5.3,5.3H23.4
	C20.5,90.1,18.1,87.8,18.1,84.8z"/>
<path class="st0" d="M60.7,84.8V15.3c0-2.9,2.4-5.3,5.3-5.3h12.7c2.9,0,5.3,2.4,5.3,5.3v69.5c0,2.9-2.4,5.3-5.3,5.3H66
	C63.1,90.1,60.7,87.8,60.7,84.8z"/>
</svg>
